<?xml version="1.0" encoding="utf-8"?>
<!-- Generator: Adobe Illustrator 21.1.0, SVG Export Plug-In . SVG Version: 6.00 Build 0)  -->
<svg version="1.1" xmlns="http://www.w3.org/2000/svg" xmlns:xlink="http://www.w3.org/1999/xlink" x="0px" y="0px"
	 viewBox="0 0 200 200" style="enable-background:new 0 0 200 200;" xml:space="preserve">
<style type="text/css">
	.st0{display:none;}
	.st1{display:inline;fill:none;stroke:#A8A8A8;stroke-width:3;stroke-miterlimit:10;}
	.st2{display:inline;fill:#9ADDE8;}
	.st3{display:inline;opacity:0.5;fill:#9ADDE8;}
	.st4{display:inline;opacity:0.5;}
	.st5{fill:#9ADDE8;}
	.st6{opacity:0.5;fill:#9ADDE8;}
	.st7{fill:none;stroke:#A8A8A8;stroke-width:3;stroke-miterlimit:10;}
	.st8{opacity:0.8;fill:#9ADDE8;}
</style>
<g id="Layer_1" class="st0">
	<path class="st1" d="M198.5,100c0,54.2-44.3,98.5-98.5,98.5c-54.2,0-98.5-44.3-98.5-98.5v0C1.5,45.8,45.8,1.5,100,1.5
		C154.2,1.5,198.5,45.8,198.5,100L198.5,100z"/>
	<path class="st2" d="M100.5,49.6c0.5,3.5,0.9,18.3,12.8,30.9c9.3,5.6,19.2,12,21.4,14.4c2.2,2.4,8.7,16.2,14.5,22.1
		c-1.5,4.3-9.3,5.4-12.7,1.7c-2.7-2.9-7.4-6.9-10.3-7.3c-1.8-0.2-3.2,3.3-3.4,4.9c-0.9,8.3,8.6,20.3,2.1,24.7
		c-6.5,4.4-7.9-9.9-12.6-9.1c-4.7,0.8,0.2,14.9-7.5,16.6c-7.5,1.6-1.6-14.6-6.7-15.4c-5.1-0.8-5.1,14.8-11.8,11.4
		c-6.7-3.3,1.6-14.9-1.2-16.9c-4.1-3-10.7,10.4-14.2,5.9c-3.5-4.5,3.7-10.3,4.4-17.4c-0.7-8.5-0.7-20.7,2.9-27
		c-1.9-6.9-14.1-25.1-16-34.1C70.8,44.9,100,46.1,100.5,49.6z"/>
	<path class="st3" d="M116.1,77.1c2.3,1.4,6.4,3.9,10.5,6.6c3.5-5.5,15.1-20.4,16.9-28.9c-5.9-9.8-36.7-9.2-37.2-5.7
		c-0.1,1-0.3,3.2-0.7,6C106.6,60.9,109,69.3,116.1,77.1z"/>
	<g class="st4">
		<g>
			<path class="st5" d="M96.3,143c-1.1,2.3-2.7,4.6-5,5.8l-1,18.2c-0.1,2.2,1.5,4.1,3.7,4.4c2.3,0.3,4.4-1.3,4.7-3.6l2-15.5
				C97.3,150.6,96.5,146.3,96.3,143z"/>
			<path class="st5" d="M68.4,122.4c1.1-2.1,2.2-4.2,2.5-6.3c-0.3-3.2-0.4-7.4-0.3-11.8c-2.1,1.2-4,2.7-5.1,3.8
				c-2.1,2.1-10,17.9-14.5,20.7c-1.2,0.8,2.1,7.7,10.3,4.1c0.8-0.3,2.6-1.9,4.5-3.7C66.2,126.6,67.4,124.3,68.4,122.4z"/>
			<path class="st5" d="M79.8,135.4c-1.8,1.6-3.8,3-6,3.4l-5.6,14.4c-0.8,2,0.1,4.3,2.1,5.3c2.1,1,4.6,0.1,5.6-1.9l5.2-10.7
				C78.7,142.8,79,138.7,79.8,135.4z"/>
			<path class="st5" d="M135.4,123.1c-0.6-0.4-1.2-0.9-1.7-1.5c-2-2.2-4.3-4.1-5.9-5.1c0,0.1,0,0.1,0,0.2c-0.3,2.4,0.9,5.9,2.1,9.3
				c1,2.8,2.1,6.2,2.3,9.4l3.5,5.2c1.2,1.8,3.6,2.4,5.5,1.3c2-1.1,2.7-3.7,1.6-5.7L135.4,123.1z"/>
			<path class="st5" d="M120.4,146c-2.9-0.9-4.8-3.5-6.3-5.9c-0.2,2.9-0.7,6.5-2.7,9.2l4.9,15.7c0.7,2.1,2.8,3.4,5,2.8
				c2.3-0.5,3.6-2.8,3.1-5.1L120.4,146z"/>
		</g>
		<g>
			<path class="st6" d="M96.3,143c-1.1,2.3-2.7,4.6-5,5.8l-1,18.2c-0.1,2.2,1.5,4.1,3.7,4.4c2.3,0.3,4.4-1.3,4.7-3.6l2-15.5
				C97.3,150.6,96.5,146.3,96.3,143z"/>
			<path class="st5" d="M68.4,122.4c1.1-2.1,2.2-4.2,2.5-6.3c-0.3-3.2-0.4-7.4-0.3-11.8c-2.1,1.2-4,2.7-5.1,3.8
				c-2.1,2.1-10,17.9-14.5,20.7c-1.2,0.8,2.1,7.7,10.3,4.1c0.8-0.3,2.6-1.9,4.5-3.7C66.2,126.6,67.4,124.3,68.4,122.4z"/>
			<path class="st6" d="M79.8,135.4c-1.8,1.6-3.8,3-6,3.4l-5.6,14.4c-0.8,2,0.1,4.3,2.1,5.3c2.1,1,4.6,0.1,5.6-1.9l5.2-10.7
				C78.7,142.8,79,138.7,79.8,135.4z"/>
			<path class="st6" d="M135.4,123.1c-0.6-0.4-1.2-0.9-1.7-1.5c-2-2.2-4.3-4.1-5.9-5.1c0,0.1,0,0.1,0,0.2c-0.3,2.4,0.9,5.9,2.1,9.3
				c1,2.8,2.1,6.2,2.3,9.4l3.5,5.2c1.2,1.8,3.6,2.4,5.5,1.3c2-1.1,2.7-3.7,1.6-5.7L135.4,123.1z"/>
			<path class="st6" d="M120.4,146c-2.9-0.9-4.8-3.5-6.3-5.9c-0.2,2.9-0.7,6.5-2.7,9.2l4.9,15.7c0.7,2.1,2.8,3.4,5,2.8
				c2.3-0.5,3.6-2.8,3.1-5.1L120.4,146z"/>
		</g>
	</g>
</g>
<g id="Layer_2" class="st0">
	<path class="st1" d="M198.5,100c0,54.2-44.3,98.5-98.5,98.5S1.5,154.2,1.5,100C1.5,45.8,45.8,1.5,100,1.5S198.5,45.8,198.5,100z"/>
	<path class="st2" d="M154.6,122.2c0-11.5-9.3-20.8-20.8-20.8c-11.5,0-20.8,9.3-20.8,20.8c0,9.4,6.2,17.2,14.7,19.8
		c-2.4,3.9-6.4,6.2-10.2,6.2c-5.9,0-9.8-2.4-13.3-5.7c-0.9-0.8-3.2-2.2-4.1,1.3c-0.4,1.5-0.3,4.6,0.8,5.7c3.5,3.1,9.3,6.2,16.7,6.2
		c7.3,0,14.8-4.8,18.2-12.8C146.3,141.9,154.6,133.1,154.6,122.2z M133.8,133.5c-6.2,0-11.3-5.1-11.3-11.3c0-6.2,5-11.3,11.3-11.3
		c6.2,0,11.3,5,11.3,11.3C145.1,128.5,140,133.5,133.8,133.5z"/>
	<path class="st3" d="M133.8,116.8c-3,0-5.5,2.5-5.5,5.5c0,3,2.5,5.5,5.5,5.5c3,0,5.5-2.5,5.5-5.5
		C139.3,119.2,136.8,116.8,133.8,116.8z"/>
	<path class="st2" d="M121.3,48.1c-1.5-2.7-4.7-5.8-10.8-6.2c-0.7-0.8-1.6-1.4-2.7-1.7l-4.9-1c-0.3-0.1-0.6-0.1-0.9-0.1
		c-2.3,0-4.3,1.7-4.7,3.8c-0.2,1.5-0.2,3,0,4.4c0.4,2.2,2.4,3.9,4.7,3.9c0.3,0,0.6,0,0.9-0.1l4.9-1c0.9-0.2,1.7-0.7,2.3-1.3
		c3.2,0.3,4.5,1.6,5.2,2.7c3.2,5.6-0.7,18.6-4.6,27.1c-1.8,0.4-3.3,1.6-4,3.4c-3.4,8.6-9.3,13.9-15.3,13.9s-11.9-5.3-15.3-13.9
		c-0.7-1.8-2.3-2.9-4-3.4c-4-8.5-7.9-21.5-4.6-27.1c0.6-1.1,1.9-2.4,5.2-2.7c0.6,0.6,1.4,1.1,2.3,1.3l4.9,1c0.3,0.1,0.6,0.1,0.9,0.1
		c2.3,0,4.3-1.7,4.7-3.9c0.2-1.5,0.2-2.9,0-4.4c-0.4-2.2-2.4-3.8-4.7-3.8c-0.3,0-0.6,0-0.9,0.1l-4.9,1c-1.1,0.2-2,0.8-2.7,1.7
		c-6.2,0.4-9.3,3.5-10.8,6.2c-5.1,9,0.1,24.4,4.3,33.3c-0.8,1.5-1,3.2-0.3,4.9c4.6,11.6,13,19.2,22.5,20.8v21.3
		c-3.3-2.4-7.2-4.1-11.3-4.1c-10,0-18.2,8.2-18.2,18.2c0,10,8.2,18.2,18.2,18.2c10,0,18.2-8.2,18.2-18.2v-35.4
		c9.5-1.5,18-9.1,22.7-20.8c0.7-1.7,0.4-3.4-0.4-4.9C121.1,72.6,126.4,57.1,121.3,48.1z M87.6,142.6c0,6.2-5.1,11.3-11.3,11.3
		c-6.2,0-11.3-5.1-11.3-11.3c0-6.2,5.1-11.3,11.3-11.3c4.3,0,9.2,3.6,11.3,7.2V142.6z"/>
</g>
<g id="Layer_3">
	<path class="st7" d="M198.5,100c0,54.2-44.3,98.5-98.5,98.5S1.5,154.2,1.5,100C1.5,45.8,45.8,1.5,100,1.5S198.5,45.8,198.5,100z"/>
	<path class="st5" d="M101.2,91.3c2,0,4,0.4,5.7,1.2c0.1-2.9,1.1-5.5,2.7-7.7c-1.1-0.2-2.3-0.4-3.4-0.4H95.1c-1.2,0-2.3,0.1-3.4,0.4
		c1.7,2.3,2.7,5.2,2.7,8.3C96.4,92,98.7,91.3,101.2,91.3L101.2,91.3z M101.2,91.3"/>
	<path class="st5" d="M113.8,70.4c0,7.3-5.9,13.2-13.2,13.2c-7.3,0-13.2-5.9-13.2-13.2c0-7.3,5.9-13.2,13.2-13.2
		C107.9,57.2,113.8,63.1,113.8,70.4L113.8,70.4z M113.8,70.4"/>
	<path class="st5" d="M121.3,106c6.7,0,12.1-5.4,12.1-12.1c0-6.7-5.4-12.1-12.1-12.1c-6.6,0-12,5.3-12.1,11.9
		c3.8,2.4,6.5,6.5,7,11.2C117.7,105.6,119.5,106,121.3,106L121.3,106z M121.3,106"/>
	<path class="st8" d="M80,81.7c-6.7,0-12.1,5.4-12.1,12.1c0,6.7,5.4,12.1,12.1,12.1c2.4,0,4.6-0.7,6.4-1.9c0.6-3.9,2.7-7.3,5.6-9.6
		c0-0.2,0-0.5,0-0.7C92.1,87.2,86.7,81.7,80,81.7L80,81.7z M80,81.7"/>
	<path class="st6" d="M129.2,81.5c3.8,2.4,6.5,6.5,7,11.2c1.6,0.7,3.3,1.1,5.1,1.1c6.7,0,12.1-5.4,12.1-12.1
		c0-6.7-5.4-12.1-12.1-12.1C134.7,69.5,129.3,74.9,129.2,81.5L129.2,81.5z M129.2,81.5"/>
	<path class="st5" d="M113.4,106.4c0,6.7-5.4,12.1-12.1,12.1c-6.7,0-12.1-5.4-12.1-12.1c0-6.7,5.4-12.1,12.1-12.1
		C107.9,94.3,113.4,99.7,113.4,106.4L113.4,106.4z M113.4,106.4"/>
	<path class="st5" d="M126.4,106.8h-10.2c-0.1,4.1-1.9,7.8-4.6,10.4c7.6,2.3,13.2,9.3,13.2,17.7v3.9c10.1-0.4,15.9-3.2,16.3-3.4
		l0.8-0.4h0.1v-12.6C142,113.8,135,106.8,126.4,106.8L126.4,106.8z M126.4,106.8"/>
	<path class="st6" d="M146.4,94.6h-10.2c-0.1,4.1-1.9,7.8-4.6,10.4c7.6,2.3,13.2,9.3,13.2,17.7v3.9c10.1-0.4,15.9-3.2,16.3-3.4
		l0.8-0.4h0.1v-12.6C162,101.6,155,94.6,146.4,94.6L146.4,94.6z M146.4,94.6"/>
	<path class="st8" d="M90.9,117.2c-2.7-2.6-4.5-6.3-4.6-10.3c-0.4,0-0.8-0.1-1.1-0.1H74.8c-8.6,0-15.5,7-15.5,15.5v12.6l0,0.2
		l0.9,0.3c6.6,2,12.4,3,17.5,3.3v-3.8C77.7,126.5,83.2,119.5,90.9,117.2L90.9,117.2z M90.9,117.2"/>
	<path class="st5" d="M106.4,119.3H96.1c-8.6,0-15.5,7-15.5,15.5v12.6l0,0.2l0.9,0.3c8.2,2.5,15.3,3.4,21.1,3.4
		c11.4,0,18-3.3,18.4-3.5l0.8-0.4h0.1v-12.6C121.9,126.3,114.9,119.3,106.4,119.3L106.4,119.3z M106.4,119.3"/>
	<path class="st5" d="M59.8,94.2c1.8,0,3.6-0.4,5.1-1.2c0.5-4.7,3.2-8.8,7-11.2c-0.1-6.6-5.5-11.9-12.1-11.9
		c-6.7,0-12.1,5.4-12.1,12.1C47.7,88.8,53.1,94.2,59.8,94.2L59.8,94.2z M59.8,94.2"/>
	<path class="st5" d="M69.5,105.4c-2.8-2.6-4.5-6.3-4.6-10.4H54.7c-8.6,0-15.5,7-15.5,15.5v12.6h0.1l0.8,0.4c0.4,0.2,6.2,3,16.3,3.4
		v-3.9C56.3,114.7,61.9,107.7,69.5,105.4L69.5,105.4z M69.5,105.4"/>
	<path class="st6" d="M74,80.5c1.5-0.6,3.7-1.3,5.8-1.3c2.5,0,4.9,0.6,7,1.8c0.5-0.5,0.9-1,1.3-1.5c-2-2.7-3.2-6-3.2-9.4
		c0-2.3,0.5-4.5,1.5-6.6c-2.2-2-5-3.1-8-3.1c-5.4,0-10.2,3.7-11.6,8.9C70.9,71.8,73.6,75.9,74,80.5L74,80.5z M74,80.5"/>
	<path class="st5" d="M113.2,78.9c0.4,0.7,0.9,1.3,1.5,1.9c2-1,4.2-1.5,6.4-1.5c2.2,0,4.2,0.6,5.6,1c0.4-5,3.5-9.5,8-11.7
		c-1.7-4.8-6.2-8-11.3-8c-3.3,0-6.4,1.4-8.7,3.8c0.8,1.9,1.2,3.9,1.2,5.9C115.9,73.3,115,76.3,113.2,78.9L113.2,78.9z M113.2,78.9"
		/>
</g>
</svg>
