<?xml version="1.0" encoding="utf-8"?>
<!-- Generator: Adobe Illustrator 21.1.0, SVG Export Plug-In . SVG Version: 6.00 Build 0)  -->
<svg version="1.1" id="Layer_1" xmlns="http://www.w3.org/2000/svg" xmlns:xlink="http://www.w3.org/1999/xlink" x="0px" y="0px"
	 viewBox="0 0 200 200" style="enable-background:new 0 0 200 200;" xml:space="preserve">
<style type="text/css">
	.st0{display:none;}
	.st1{display:inline;fill:none;stroke:#A8A8A8;stroke-width:3;stroke-miterlimit:10;}
	.st2{display:inline;fill:#9ADDE8;}
	.st3{display:inline;opacity:0.5;fill:#9ADDE8;enable-background:new    ;}
	.st4{display:inline;opacity:0.5;}
	.st5{fill:#9ADDE8;}
	.st6{opacity:0.5;fill:#9ADDE8;enable-background:new    ;}
	.st7{fill:#0079C2;}
	.st8{opacity:0.8;fill:#0079C2;enable-background:new    ;}
	.st9{opacity:0.5;fill:#0079C2;enable-background:new    ;}
</style>
<g id="Layer_1_1_" class="st0">
	<path class="st1" d="M198.5,100c0,54.2-44.3,98.5-98.5,98.5S1.5,154.2,1.5,100l0,0C1.5,45.8,45.8,1.5,100,1.5S198.5,45.8,198.5,100
		L198.5,100z"/>
	<path class="st2" d="M100.5,49.6c0.5,3.5,0.9,18.3,12.8,30.9c9.3,5.6,19.2,12,21.4,14.4s8.7,16.2,14.5,22.1
		c-1.5,4.3-9.3,5.4-12.7,1.7c-2.7-2.9-7.4-6.9-10.3-7.3c-1.8-0.2-3.2,3.3-3.4,4.9c-0.9,8.3,8.6,20.3,2.1,24.7
		c-6.5,4.4-7.9-9.9-12.6-9.1c-4.7,0.8,0.2,14.9-7.5,16.6c-7.5,1.6-1.6-14.6-6.7-15.4c-5.1-0.8-5.1,14.8-11.8,11.4
		c-6.7-3.3,1.6-14.9-1.2-16.9c-4.1-3-10.7,10.4-14.2,5.9s3.7-10.3,4.4-17.4c-0.7-8.5-0.7-20.7,2.9-27C76.3,82.2,64.1,64,62.2,55
		C70.8,44.9,100,46.1,100.5,49.6z"/>
	<path class="st3" d="M116.1,77.1c2.3,1.4,6.4,3.9,10.5,6.6c3.5-5.5,15.1-20.4,16.9-28.9c-5.9-9.8-36.7-9.2-37.2-5.7
		c-0.1,1-0.3,3.2-0.7,6C106.6,60.9,109,69.3,116.1,77.1z"/>
	<g class="st4">
		<g>
			<path class="st5" d="M96.3,143c-1.1,2.3-2.7,4.6-5,5.8l-1,18.2c-0.1,2.2,1.5,4.1,3.7,4.4c2.3,0.3,4.4-1.3,4.7-3.6l2-15.5
				C97.3,150.6,96.5,146.3,96.3,143z"/>
			<path class="st5" d="M68.4,122.4c1.1-2.1,2.2-4.2,2.5-6.3c-0.3-3.2-0.4-7.4-0.3-11.8c-2.1,1.2-4,2.7-5.1,3.8
				c-2.1,2.1-10,17.9-14.5,20.7c-1.2,0.8,2.1,7.7,10.3,4.1c0.8-0.3,2.6-1.9,4.5-3.7C66.2,126.6,67.4,124.3,68.4,122.4z"/>
			<path class="st5" d="M79.8,135.4c-1.8,1.6-3.8,3-6,3.4l-5.6,14.4c-0.8,2,0.1,4.3,2.1,5.3c2.1,1,4.6,0.1,5.6-1.9l5.2-10.7
				C78.7,142.8,79,138.7,79.8,135.4z"/>
			<path class="st5" d="M135.4,123.1c-0.6-0.4-1.2-0.9-1.7-1.5c-2-2.2-4.3-4.1-5.9-5.1c0,0.1,0,0.1,0,0.2c-0.3,2.4,0.9,5.9,2.1,9.3
				c1,2.8,2.1,6.2,2.3,9.4l3.5,5.2c1.2,1.8,3.6,2.4,5.5,1.3c2-1.1,2.7-3.7,1.6-5.7L135.4,123.1z"/>
			<path class="st5" d="M120.4,146c-2.9-0.9-4.8-3.5-6.3-5.9c-0.2,2.9-0.7,6.5-2.7,9.2l4.9,15.7c0.7,2.1,2.8,3.4,5,2.8
				c2.3-0.5,3.6-2.8,3.1-5.1L120.4,146z"/>
		</g>
		<g>
			<path class="st6" d="M96.3,143c-1.1,2.3-2.7,4.6-5,5.8l-1,18.2c-0.1,2.2,1.5,4.1,3.7,4.4c2.3,0.3,4.4-1.3,4.7-3.6l2-15.5
				C97.3,150.6,96.5,146.3,96.3,143z"/>
			<path class="st5" d="M68.4,122.4c1.1-2.1,2.2-4.2,2.5-6.3c-0.3-3.2-0.4-7.4-0.3-11.8c-2.1,1.2-4,2.7-5.1,3.8
				c-2.1,2.1-10,17.9-14.5,20.7c-1.2,0.8,2.1,7.7,10.3,4.1c0.8-0.3,2.6-1.9,4.5-3.7C66.2,126.6,67.4,124.3,68.4,122.4z"/>
			<path class="st6" d="M79.8,135.4c-1.8,1.6-3.8,3-6,3.4l-5.6,14.4c-0.8,2,0.1,4.3,2.1,5.3c2.1,1,4.6,0.1,5.6-1.9l5.2-10.7
				C78.7,142.8,79,138.7,79.8,135.4z"/>
			<path class="st6" d="M135.4,123.1c-0.6-0.4-1.2-0.9-1.7-1.5c-2-2.2-4.3-4.1-5.9-5.1c0,0.1,0,0.1,0,0.2c-0.3,2.4,0.9,5.9,2.1,9.3
				c1,2.8,2.1,6.2,2.3,9.4l3.5,5.2c1.2,1.8,3.6,2.4,5.5,1.3c2-1.1,2.7-3.7,1.6-5.7L135.4,123.1z"/>
			<path class="st6" d="M120.4,146c-2.9-0.9-4.8-3.5-6.3-5.9c-0.2,2.9-0.7,6.5-2.7,9.2l4.9,15.7c0.7,2.1,2.8,3.4,5,2.8
				c2.3-0.5,3.6-2.8,3.1-5.1L120.4,146z"/>
		</g>
	</g>
</g>
<g id="Layer_2" class="st0">
	<path class="st1" d="M198.5,100c0,54.2-44.3,98.5-98.5,98.5S1.5,154.2,1.5,100S45.8,1.5,100,1.5S198.5,45.8,198.5,100z"/>
	<path class="st2" d="M154.6,122.2c0-11.5-9.3-20.8-20.8-20.8s-20.8,9.3-20.8,20.8c0,9.4,6.2,17.2,14.7,19.8
		c-2.4,3.9-6.4,6.2-10.2,6.2c-5.9,0-9.8-2.4-13.3-5.7c-0.9-0.8-3.2-2.2-4.1,1.3c-0.4,1.5-0.3,4.6,0.8,5.7c3.5,3.1,9.3,6.2,16.7,6.2
		c7.3,0,14.8-4.8,18.2-12.8C146.3,141.9,154.6,133.1,154.6,122.2z M133.8,133.5c-6.2,0-11.3-5.1-11.3-11.3s5-11.3,11.3-11.3
		c6.2,0,11.3,5,11.3,11.3S140,133.5,133.8,133.5z"/>
	<path class="st3" d="M133.8,116.8c-3,0-5.5,2.5-5.5,5.5s2.5,5.5,5.5,5.5s5.5-2.5,5.5-5.5C139.3,119.2,136.8,116.8,133.8,116.8z"/>
	<path class="st2" d="M121.3,48.1c-1.5-2.7-4.7-5.8-10.8-6.2c-0.7-0.8-1.6-1.4-2.7-1.7l-4.9-1c-0.3-0.1-0.6-0.1-0.9-0.1
		c-2.3,0-4.3,1.7-4.7,3.8c-0.2,1.5-0.2,3,0,4.4c0.4,2.2,2.4,3.9,4.7,3.9c0.3,0,0.6,0,0.9-0.1l4.9-1c0.9-0.2,1.7-0.7,2.3-1.3
		c3.2,0.3,4.5,1.6,5.2,2.7c3.2,5.6-0.7,18.6-4.6,27.1c-1.8,0.4-3.3,1.6-4,3.4c-3.4,8.6-9.3,13.9-15.3,13.9S79.5,90.6,76.1,82
		c-0.7-1.8-2.3-2.9-4-3.4c-4-8.5-7.9-21.5-4.6-27.1c0.6-1.1,1.9-2.4,5.2-2.7c0.6,0.6,1.4,1.1,2.3,1.3l4.9,1c0.3,0.1,0.6,0.1,0.9,0.1
		c2.3,0,4.3-1.7,4.7-3.9c0.2-1.5,0.2-2.9,0-4.4c-0.4-2.2-2.4-3.8-4.7-3.8c-0.3,0-0.6,0-0.9,0.1l-4.9,1c-1.1,0.2-2,0.8-2.7,1.7
		c-6.2,0.4-9.3,3.5-10.8,6.2c-5.1,9,0.1,24.4,4.3,33.3c-0.8,1.5-1,3.2-0.3,4.9c4.6,11.6,13,19.2,22.5,20.8v21.3
		c-3.3-2.4-7.2-4.1-11.3-4.1c-10,0-18.2,8.2-18.2,18.2s8.2,18.2,18.2,18.2s18.2-8.2,18.2-18.2v-35.4c9.5-1.5,18-9.1,22.7-20.8
		c0.7-1.7,0.4-3.4-0.4-4.9C121.1,72.6,126.4,57.1,121.3,48.1z M87.6,142.6c0,6.2-5.1,11.3-11.3,11.3c-6.2,0-11.3-5.1-11.3-11.3
		s5.1-11.3,11.3-11.3c4.3,0,9.2,3.6,11.3,7.2V142.6z"/>
</g>
<g id="Layer_3">
	<path class="st7" d="M101.5,85.1c3,0,5.9,0.6,8.4,1.8c0.1-4.3,1.6-8.1,4-11.4c-1.6-0.3-3.4-0.6-5-0.6H92.5c-1.8,0-3.4,0.1-5,0.6
		c2.5,3.4,4,7.7,4,12.2C94.4,86.2,97.8,85.1,101.5,85.1L101.5,85.1z"/>
	<path class="st7" d="M120.1,54.3c0,10.8-8.7,19.5-19.5,19.5s-19.5-8.7-19.5-19.5s8.7-19.5,19.5-19.5
		C111.4,34.8,120.1,43.5,120.1,54.3L120.1,54.3z"/>
	<path class="st7" d="M131.1,106.8c9.9,0,17.9-8,17.9-17.9s-8-17.9-17.9-17.9c-9.7,0-17.7,7.8-17.9,17.6c5.6,3.5,9.6,9.6,10.3,16.5
		C125.8,106.2,128.5,106.8,131.1,106.8L131.1,106.8z"/>
	<path class="st8" d="M70.2,71c-9.9,0-17.9,8-17.9,17.9s8,17.9,17.9,17.9c3.5,0,6.8-1,9.4-2.8c0.9-5.8,4-10.8,8.3-14.2
		c0-0.3,0-0.7,0-1C88.1,79.1,80.1,71,70.2,71L70.2,71z"/>
	<path class="st9" d="M142.8,70.7c5.6,3.5,9.6,9.6,10.3,16.5c2.4,1,4.9,1.6,7.5,1.6c9.9,0,17.9-8,17.9-17.9s-8-17.9-17.9-17.9
		C150.9,53,142.9,60.9,142.8,70.7L142.8,70.7z"/>
	<path class="st7" d="M119.5,107.4c0,9.9-8,17.9-17.9,17.9c-9.9,0-17.9-8-17.9-17.9s8-17.9,17.9-17.9
		C111.4,89.6,119.5,97.5,119.5,107.4L119.5,107.4z"/>
	<path class="st7" d="M138.7,108h-15c-0.1,6-2.8,11.5-6.8,15.3c11.2,3.4,19.5,13.7,19.5,26.1v5.8c14.9-0.6,23.5-4.7,24-5l1.2-0.6
		h0.1V131C161.7,118.3,151.4,108,138.7,108L138.7,108z"/>
	<path class="st9" d="M168.2,90l-15,0c-0.1,6-2.8,11.5-6.8,15.3c11.2,3.4,19.5,13.7,19.5,26.1v5.8c14.9-0.6,23.5-4.7,24-5l1.2-0.6
		h0.1V113C191.2,100.3,180.9,90,168.2,90L168.2,90z"/>
	<path class="st8" d="M86.3,123.4c-4-3.8-6.6-9.3-6.8-15.2c-0.6,0-1.2-0.1-1.6-0.1H62.5c-12.7,0-22.9,10.3-22.9,22.9l0,18.6v0.3
		l1.3,0.4c9.7,3,18.3,4.4,25.8,4.9v-5.6C66.8,137.1,74.9,126.7,86.3,123.4L86.3,123.4z"/>
	<path class="st7" d="M109.2,126.5l-15.2,0c-12.7,0-22.9,10.3-22.9,22.9v18.6v0.3l1.3,0.4c12.1,3.7,22.6,5,31.1,5
		c16.8,0,26.6-4.9,27.1-5.2l1.2-0.6h0.1v-18.6C132,136.8,121.7,126.5,109.2,126.5L109.2,126.5z"/>
	<path class="st7" d="M40.4,89.4c2.7,0,5.3-0.6,7.5-1.8c0.7-6.9,4.7-13,10.3-16.5c-0.1-9.7-8.1-17.6-17.9-17.6
		c-9.9,0-17.9,8-17.9,17.9C22.6,81.5,30.5,89.4,40.4,89.4L40.4,89.4z"/>
	<path class="st7" d="M54.7,105.9c-4.1-3.8-6.6-9.3-6.8-15.3h-15c-12.7,0-22.9,10.3-22.9,22.9l0,18.6h0.1l1.2,0.6
		c0.6,0.3,9.1,4.4,24,5v-5.8C35.2,119.7,43.5,109.3,54.7,105.9L54.7,105.9z"/>
	<path class="st9" d="M61.4,69.2c2.2-0.9,5.5-1.9,8.6-1.9c3.7,0,7.2,0.9,10.3,2.7c0.7-0.7,1.3-1.5,1.9-2.2c-3-4-4.7-8.9-4.7-13.9
		c0-3.4,0.7-6.6,2.2-9.7c-3.2-3-7.4-4.6-11.8-4.6c-8,0-15,5.5-17.1,13.1C56.8,56.4,60.8,62.4,61.4,69.2L61.4,69.2z"/>
	<path class="st7" d="M119.2,66.9c0.6,1,1.3,1.9,2.2,2.8c3-1.5,6.2-2.2,9.4-2.2c3.2,0,6.2,0.9,8.3,1.5c0.6-7.4,5.2-14,11.8-17.3
		c-2.5-7.1-9.1-11.8-16.7-11.8c-4.9,0-9.4,2.1-12.8,5.6c1.2,2.8,1.8,5.8,1.8,8.7C123.2,58.6,121.8,63,119.2,66.9L119.2,66.9z"/>
</g>
<g>
	
		<image style="overflow:visible;" width="488" height="474" id="SyQIXc_1_" xlink:href="AAAADB5921CC2705.png"  transform="matrix(0.5 0 0 0.5 -433 -18.5)">
	</image>
</g>
</svg>
