<?xml version="1.0" encoding="utf-8"?>
<!-- Generator: Adobe Illustrator 21.1.0, SVG Export Plug-In . SVG Version: 6.00 Build 0)  -->
<svg version="1.1" id="Layer_1" xmlns="http://www.w3.org/2000/svg" xmlns:xlink="http://www.w3.org/1999/xlink" x="0px" y="0px"
	 viewBox="0 0 499.5 111.5" style="enable-background:new 0 0 499.5 111.5;" xml:space="preserve">
<style type="text/css">
	.st0{fill:#DD2A2A;}
</style>
<path class="st0" d="M88.6,20C76,9.2,66.9,10.8,62.5,12.8C55.3,16,50.7,24.2,50.7,33.7c0,7.7,2.7,15.3,8.4,23.3
	c4.5,6.4,11,13.2,20.4,21.3c2.2,1.9,3.5,3.3,3.5,7.4c0,1.6-0.7,2.3-2.4,2.3H75c-1,0-1.7-1.2-2.6-2.9c-1.1-1.9-2.4-4.3-5-4.3
	c-2.3,0-4.2,2-6,3.9c-1.6,1.7-3.2,3.4-4.9,3.4h-8c-1.7,0-3,1-3.4,2.8c-0.1,0.5-0.2,1-0.3,1.5c-0.6-7.5-1.7-22.4-2.3-29.6
	c-0.1-0.8-0.1-1.5-0.2-1.9c-0.3-1.7-1.2-1.7-1.5-1.7c-1.2,0-1.4,1.3-1.5,1.7s-0.1,1-0.2,1.8c-0.6,7.9-1.6,21.2-2,27.7
	c-1-1.9-2.1-2.4-4.4-2.4c0,0-5.3,0-5.4,0c-0.2-0.1-0.8-0.8-1.1-1.2c-1.2-1.5-2.7-3.5-5.6-3.5s-4.7,1.4-6.4,2.6c-1.5,1.1-2.7,2-4.5,2
	v2.6c2.7,0,4.5-1.4,6.1-2.6c1.5-1.1,2.8-2.1,4.8-2.1c1.6,0,2.6,1.3,3.6,2.5c0.9,1.1,1.7,2.2,3.1,2.2h5.5c1.7,0,1.8,0,2.6,2.1
	l0.2,0.6c0.6,1.5,1.1,2.9,2.4,2.7c1.4-0.2,1.5-1.9,1.6-3.1c0.2-3.2,0.8-10.6,1.3-17.9c0.7,9.4,1.5,19.7,1.6,21.7
	c0.1,1.6,0.2,3.2,1.6,3.3c1.3,0.1,1.7-1.1,2.1-2.5l0.1-0.5c0.3-1,1-4,1.4-5.7c0.2-0.8,0.5-0.8,0.9-0.8h8c2.8,0,4.9-2.2,6.8-4.2
	c1.4-1.5,2.9-3,4.1-3c1,0,1.7,1.2,2.7,3c1,1.9,2.4,4.3,4.9,4.3h5.6c3.1,0,5-1.9,5-4.9c0-4.7-1.5-6.8-4.4-9.4
	c-9.2-8-15.6-14.6-20-20.8c-5.3-7.5-7.9-14.7-7.9-21.8c0-8.5,4-15.8,10.2-18.6c6.8-3,15.4-0.4,24.2,7.5l0.9,0.8l0.9-0.8
	c8.8-7.9,17.4-10.6,24.2-7.5C120,17.8,124,25.1,124,33.6c0,7.2-2.6,14.3-7.9,21.8c-4.4,6.2-10.8,12.9-20,20.8
	c-2.9,2.5-4.4,4.6-4.4,9.4c0,3.2,1.7,4.9,5,4.9c2.7,0,4.5-1.4,6.1-2.6c1.5-1.1,2.8-2.1,4.8-2.1c1.6,0,2.6,1.3,3.6,2.5
	c0.9,1.1,1.7,2.2,3.1,2.2h5.5c1.7,0,1.8,0,2.6,2.1l0.2,0.6c0.6,1.5,1.1,2.9,2.4,2.7c1.4-0.2,1.5-1.9,1.6-3.1
	c0.2-3.2,0.8-10.6,1.3-17.9c0.7,9.4,1.5,19.7,1.6,21.7c0.1,1.6,0.2,3.2,1.6,3.3c1.3,0.1,1.7-1.1,2.1-2.5l0.1-0.5c0.3-1,1-4,1.4-5.7
	c0.2-0.8,0.5-0.8,0.9-0.8h8c2.8,0,4.9-2.2,6.8-4.2c1.4-1.5,2.9-3,4.1-3c1,0,1.7,1.2,2.7,3c1,1.9,2.4,4.3,4.9,4.3h2.9V88h-3
	c-1,0-1.7-1.2-2.6-2.9c-1.1-1.9-2.4-4.3-5-4.3c-2.3,0-4.2,2-6,3.9c-1.6,1.7-3.2,3.4-4.9,3.4h-8c-1.7,0-3,1-3.4,2.8
	c-0.1,0.5-0.2,1-0.3,1.5c-0.6-7.5-1.7-22.4-2.3-29.6c-0.1-0.8-0.1-1.5-0.2-1.9c-0.3-1.7-1.2-1.7-1.5-1.7c-1.2,0-1.4,1.3-1.5,1.7
	s-0.1,1-0.2,1.8c-0.6,7.9-1.6,21.2-2,27.7c-1-1.9-2.1-2.4-4.4-2.4c0,0-5.3,0-5.4,0c-0.2-0.1-0.8-0.8-1.1-1.2
	c-1.2-1.5-2.7-3.5-5.6-3.5s-4.7,1.4-6.4,2.6c-1.5,1.1-2.7,2-4.5,2s-2.4-0.5-2.4-2.3c0-4.1,1.3-5.5,3.5-7.4
	c9.4-8.1,15.9-14.9,20.4-21.3c5.7-8,8.4-15.6,8.4-23.3c0-9.5-4.6-17.7-11.7-20.9C110.4,10.8,101.2,9.2,88.6,20z"/>
</svg>
