<?xml version="1.0" encoding="utf-8"?>
<!-- Generator: Adobe Illustrator 21.1.0, SVG Export Plug-In . SVG Version: 6.00 Build 0)  -->
<svg version="1.1" id="Layer_1" xmlns="http://www.w3.org/2000/svg" xmlns:xlink="http://www.w3.org/1999/xlink" x="0px" y="0px"
	 viewBox="0 0 499.5 111.5" style="enable-background:new 0 0 499.5 111.5;" xml:space="preserve">
<style type="text/css">
	.st0{fill:#DD2A2A;}
	.st1{fill:#FFFFFF;}
</style>
<g>
	<path class="st0" d="M276.2,84.1c14.8-14.4,32-28.6,32-46.1c0-19.9-15.7-34.3-36.8-13.4C252.8,4,234.6,18,234.6,38
		c0,18,17.5,31.8,33,47.1c0.2,0.2,0.6,2.8-0.6,4.7s-3.8,2.9-3.8,2.9l8.9,0.1l7.3-0.1c0,0-2.8-1.5-3.7-3.5
		C274.9,87,275.9,84.4,276.2,84.1z"/>
	<path class="st1" d="M271.6,22c-12.6-10.8-21.8-9.2-26.2-7.2c-7.1,3.2-11.7,11.4-11.7,20.9c0,7.7,2.7,15.3,8.4,23.3
		c4.5,6.4,11,13.2,20.4,21.3c2.2,1.9,3.5,3.3,3.5,7.4c0,1.6-0.7,2.3-2.4,2.3h-5.6c-1,0-1.7-1.2-2.6-2.9c-1.1-1.9-2.4-4.3-5-4.3
		c-2.3,0-4.2,2-6,3.9c-1.6,1.7-3.2,3.4-4.9,3.4h-8c-1.7,0-3,1-3.4,2.8c-0.1,0.5-0.2,1-0.3,1.5c-0.6-7.5-1.7-22.4-2.3-29.6
		c-0.1-0.8-0.1-1.5-0.2-1.9c-0.3-1.7-1.2-1.7-1.5-1.7c-1.2,0-1.4,1.3-1.5,1.7c-0.1,0.4-0.1,1-0.2,1.8c-0.6,7.9-1.6,21.2-2,27.7
		c-1-1.9-2.1-2.4-4.4-2.4c0,0-5.3,0-5.4,0c-0.2-0.1-0.8-0.8-1.1-1.2c-1.2-1.5-2.7-3.5-5.6-3.5c-2.9,0-4.7,1.4-6.4,2.6
		c-1.5,1.1-2.7,2-4.5,2v2.6c2.7,0,4.5-1.4,6.1-2.6c1.5-1.1,2.8-2.1,4.8-2.1c1.6,0,2.6,1.3,3.6,2.5c0.9,1.1,1.7,2.2,3.1,2.2h5.5
		c1.7,0,1.8,0,2.6,2.1l0.2,0.6c0.6,1.5,1.1,2.9,2.4,2.7c1.4-0.2,1.5-1.9,1.6-3.1c0.2-3.2,0.8-10.6,1.3-17.9
		c0.7,9.4,1.5,19.7,1.6,21.7c0.1,1.6,0.2,3.2,1.6,3.3c1.3,0.1,1.7-1.1,2.1-2.5l0.1-0.5c0.3-1,1-4,1.4-5.7c0.2-0.8,0.5-0.8,0.9-0.8h8
		c2.8,0,4.9-2.2,6.8-4.2c1.4-1.5,2.9-3,4.1-3c1,0,1.7,1.2,2.7,3c1,1.9,2.4,4.3,4.9,4.3h5.6c3.1,0,5-1.9,5-4.9c0-4.7-1.5-6.8-4.4-9.4
		c-9.2-8-15.6-14.6-20-20.8c-5.3-7.5-7.9-14.7-7.9-21.8c0-8.5,4-15.8,10.2-18.6c6.8-3,15.4-0.4,24.2,7.5l0.9,0.8l0.9-0.8
		c8.8-7.9,17.4-10.6,24.2-7.5c6.2,2.8,10.2,10.1,10.2,18.6c0,7.2-2.6,14.3-7.9,21.8c-4.4,6.2-10.8,12.9-20,20.8
		c-2.9,2.5-4.4,4.6-4.4,9.4c0,3.2,1.7,4.9,5,4.9c2.7,0,4.5-1.4,6.1-2.6c1.5-1.1,2.8-2.1,4.8-2.1c1.6,0,2.6,1.3,3.6,2.5
		c0.9,1.1,1.7,2.2,3.1,2.2h5.5c1.7,0,1.8,0,2.6,2.1l0.2,0.6c0.6,1.5,1.1,2.9,2.4,2.7c1.4-0.2,1.5-1.9,1.6-3.1
		c0.2-3.2,0.8-10.6,1.3-17.9c0.7,9.4,1.5,19.7,1.6,21.7c0.1,1.6,0.2,3.2,1.6,3.3c1.3,0.1,1.7-1.1,2.1-2.5l0.1-0.5c0.3-1,1-4,1.4-5.7
		c0.2-0.8,0.5-0.8,0.9-0.8h8c2.8,0,4.9-2.2,6.8-4.2c1.4-1.5,2.9-3,4.1-3c1,0,1.7,1.2,2.7,3c1,1.9,2.4,4.3,4.9,4.3h2.9V90H345
		c-1,0-1.7-1.2-2.6-2.9c-1.1-1.9-2.4-4.3-5-4.3c-2.3,0-4.2,2-6,3.9c-1.6,1.7-3.2,3.4-4.9,3.4h-8c-1.7,0-3,1-3.4,2.8
		c-0.1,0.5-0.2,1-0.3,1.5c-0.6-7.5-1.7-22.4-2.3-29.6c-0.1-0.8-0.1-1.5-0.2-1.9c-0.3-1.7-1.2-1.7-1.5-1.7c-1.2,0-1.4,1.3-1.5,1.7
		c-0.1,0.4-0.1,1-0.2,1.8c-0.6,7.9-1.6,21.2-2,27.7c-1-1.9-2.1-2.4-4.4-2.4c0,0-5.3,0-5.4,0c-0.2-0.1-0.8-0.8-1.1-1.2
		c-1.2-1.5-2.7-3.5-5.6-3.5c-2.9,0-4.7,1.4-6.4,2.6c-1.5,1.1-2.7,2-4.5,2c-1.8,0-2.4-0.5-2.4-2.3c0-4.1,1.3-5.5,3.5-7.4
		c9.4-8.1,15.9-14.9,20.4-21.3c5.7-8,8.4-15.6,8.4-23.3c0-9.5-4.6-17.7-11.7-20.9C293.4,12.8,284.2,11.2,271.6,22z"/>
	<path class="st1" d="M9.9,92.4c-0.7,0-1.2-0.2-1.7-0.7l-1.9-1.9c-0.5-0.5-0.7-1-0.7-1.7V54.2c0-0.7,0.2-1.2,0.7-1.7l1.9-1.9
		c0.5-0.5,1-0.7,1.7-0.7h6.3c0.7,0,1.2,0.2,1.7,0.7l1.9,1.9c0.5,0.5,0.7,1,0.7,1.7v7.2c0,0.9-0.5,1.4-1.4,1.4h-2.6
		c-0.9,0-1.4-0.5-1.4-1.4v-5.9L14,54.3h-2l-1.1,1.1v31.3l1.1,1.1h2l1.1-1.1v-5.9c0-0.9,0.5-1.4,1.4-1.4h2.6c0.9,0,1.4,0.5,1.4,1.4
		V88c0,0.7-0.2,1.2-0.7,1.7l-1.9,1.9c-0.5,0.5-1,0.7-1.7,0.7H9.9z"/>
	<path class="st1" d="M29,91c0,0.9-0.5,1.4-1.4,1.4H25c-0.9,0-1.4-0.5-1.4-1.4V51.2c0-0.9,0.5-1.4,1.4-1.4h9.7
		c0.7,0,1.2,0.2,1.7,0.7l1.9,1.9c0.5,0.5,0.7,1,0.7,1.7V71c0,0.7-0.2,1.2-0.7,1.7l-1.9,1.9c-0.5,0.5-1,0.7-1.7,0.7H29V91z
		 M33.7,69.8V55.4l-1.1-1.1H29v16.6h3.6L33.7,69.8z"/>
	<path class="st1" d="M47.4,91c0,0.9-0.5,1.4-1.4,1.4h-2.6c-0.9,0-1.4-0.5-1.4-1.4V51.2c0-0.9,0.5-1.4,1.4-1.4h10
		c0.7,0,1.2,0.2,1.7,0.7l1.9,1.9c0.5,0.5,0.7,1,0.7,1.7v15.7c0,0.7-0.2,1.2-0.7,1.7l-2.2,2.2l3.1,17c0.2,1-0.3,1.5-1.3,1.5h-2.4
		c-0.8,0-1.3-0.4-1.5-1.3l-3.1-16.9h-2.3V91z M52.4,68.8V55.4l-1.1-1.1h-3.9v15.6h3.9L52.4,68.8z"/>
	<path class="st1" d="M70.5,51.2c0-0.9,0.5-1.4,1.4-1.4h10.3c0.9,0,1.4,0.5,1.4,1.4V53c0,0.9-0.5,1.4-1.4,1.4h-6.3v14.6h5.5
		c0.9,0,1.4,0.5,1.4,1.4v1.8c0,0.9-0.5,1.4-1.4,1.4h-5.5V91c0,0.9-0.5,1.4-1.4,1.4h-2.6c-0.9,0-1.4-0.5-1.4-1.4V51.2z"/>
	<path class="st1" d="M97.7,49.8c0.7,0,1.2,0.2,1.7,0.7l1.9,1.9c0.5,0.5,0.7,1,0.7,1.7V88c0,0.7-0.2,1.2-0.7,1.7l-1.9,1.9
		c-0.5,0.5-1,0.7-1.7,0.7h-7.3c-0.7,0-1.2-0.2-1.7-0.7l-1.9-1.9c-0.5-0.5-0.7-1-0.7-1.7V54.2c0-0.7,0.2-1.2,0.7-1.7l1.9-1.9
		c0.5-0.5,1-0.7,1.7-0.7H97.7z M92.5,54.4l-1.1,1.1v31.1l1.1,1.1h3.1l1.1-1.1V55.6l-1.1-1.1H92.5z"/>
	<path class="st1" d="M111,91c0,0.9-0.5,1.4-1.4,1.4H107c-0.9,0-1.4-0.5-1.4-1.4V51.2c0-0.9,0.5-1.4,1.4-1.4h10
		c0.7,0,1.2,0.2,1.7,0.7l1.9,1.9c0.5,0.5,0.7,1,0.7,1.7v15.7c0,0.7-0.2,1.2-0.7,1.7l-2.2,2.2l3.1,17c0.2,1-0.3,1.5-1.3,1.5h-2.4
		c-0.8,0-1.3-0.4-1.5-1.3l-3.1-16.9H111V91z M116,68.8V55.4l-1.1-1.1H111v15.6h3.9L116,68.8z"/>
	<path class="st1" d="M145.3,87.8c0.9,0,1.4,0.5,1.4,1.4V91c0,0.9-0.5,1.4-1.4,1.4h-9.7c-0.9,0-1.4-0.5-1.4-1.4V51.2
		c0-0.9,0.5-1.4,1.4-1.4h2.6c0.9,0,1.4,0.5,1.4,1.4v36.6H145.3z"/>
	<path class="st1" d="M154.4,91c0,0.9-0.5,1.4-1.4,1.4h-2.6c-0.9,0-1.4-0.5-1.4-1.4V51.2c0-0.9,0.5-1.4,1.4-1.4h2.6
		c0.9,0,1.4,0.5,1.4,1.4V91z"/>
	<path class="st1" d="M158.1,51.2c0-0.9,0.5-1.4,1.4-1.4h10.3c0.9,0,1.4,0.5,1.4,1.4V53c0,0.9-0.5,1.4-1.4,1.4h-6.3v14.6h5.5
		c0.9,0,1.4,0.5,1.4,1.4v1.8c0,0.9-0.5,1.4-1.4,1.4h-5.5V91c0,0.9-0.5,1.4-1.4,1.4h-2.6c-0.9,0-1.4-0.5-1.4-1.4V51.2z"/>
	<path class="st1" d="M187.1,91c0,0.9-0.5,1.4-1.4,1.4h-10.6c-0.9,0-1.4-0.5-1.4-1.4V51.2c0-0.9,0.5-1.4,1.4-1.4h10.5
		c0.9,0,1.4,0.5,1.4,1.4V53c0,0.9-0.5,1.4-1.4,1.4h-6.5v14.1h5.5c0.9,0,1.4,0.5,1.4,1.4v1.8c0,0.9-0.5,1.4-1.4,1.4h-5.5v14.7h6.6
		c0.9,0,1.4,0.5,1.4,1.4V91z"/>
	<path class="st1" d="M365.7,49.7c0.7,0,1.2,0.2,1.7,0.7l1.9,1.9c0.5,0.5,0.7,1,0.7,1.7v33.8c0,0.7-0.2,1.2-0.7,1.7l-1.9,1.9
		c-0.5,0.5-1,0.7-1.7,0.7h-7.3c-0.7,0-1.2-0.2-1.7-0.7l-1.9-1.9c-0.5-0.5-0.7-1-0.7-1.7V54c0-0.7,0.2-1.2,0.7-1.7l1.9-1.9
		c0.5-0.5,1-0.7,1.7-0.7H365.7z M360.5,54.3l-1.1,1.1v31.1l1.1,1.1h3.1l1.1-1.1V55.4l-1.1-1.1H360.5z"/>
	<path class="st1" d="M379,90.8c0,0.9-0.5,1.4-1.4,1.4H375c-0.9,0-1.4-0.5-1.4-1.4V51.1c0-0.9,0.5-1.4,1.4-1.4h10
		c0.7,0,1.2,0.2,1.7,0.7l1.9,1.9c0.5,0.5,0.7,1,0.7,1.7v15.7c0,0.7-0.2,1.2-0.7,1.7l-2.2,2.2l3.1,17c0.2,1-0.3,1.5-1.3,1.5h-2.4
		c-0.8,0-1.3-0.4-1.5-1.3l-3.1-16.9H379V90.8z M384,68.6V55.3l-1.1-1.1H379v15.6h3.9L384,68.6z"/>
	<path class="st1" d="M404.3,87.6c0.9,0,1.4,0.5,1.4,1.4v1.8c0,0.9-0.5,1.4-1.4,1.4h-9.7c-0.9,0-1.4-0.5-1.4-1.4V51.1
		c0-0.9,0.5-1.4,1.4-1.4h2.6c0.9,0,1.4,0.5,1.4,1.4v36.6H404.3z"/>
	<path class="st1" d="M424.7,90.8c0.1,0.9-0.4,1.5-1.3,1.5h-2.7c-0.9,0-1.4-0.4-1.5-1.3l-0.9-9.6h-5l-0.9,9.6
		c-0.1,0.9-0.6,1.3-1.5,1.3h-2.5c-1,0-1.5-0.6-1.3-1.5l4.8-39.8c0.1-0.8,0.6-1.3,1.5-1.3h5c0.9,0,1.4,0.4,1.5,1.3L424.7,90.8z
		 M415.7,55.2l-2.1,21.5h4.1L415.7,55.2z"/>
	<path class="st1" d="M432,90.8c0,0.9-0.5,1.4-1.4,1.4h-2.1c-0.9,0-1.4-0.5-1.4-1.4V51.1c0-0.9,0.5-1.4,1.4-1.4h3.1
		c0.9,0,1.4,0.4,1.6,1.2l5.9,28.3V51.1c0-0.9,0.5-1.4,1.4-1.4h2.1c0.9,0,1.4,0.5,1.4,1.4v39.8c0,0.9-0.5,1.4-1.4,1.4h-3.1
		c-0.9,0-1.4-0.4-1.6-1.2L432,63.2V90.8z"/>
	<path class="st1" d="M447.7,51.1c0-0.9,0.5-1.4,1.4-1.4h10.2c0.7,0,1.2,0.2,1.7,0.7l1.9,1.9c0.5,0.5,0.7,1,0.7,1.7v33.8
		c0,0.7-0.2,1.2-0.7,1.7l-1.9,1.9c-0.5,0.5-1,0.7-1.7,0.7h-10.2c-0.9,0-1.4-0.5-1.4-1.4V51.1z M458.3,86.5V55.4l-1.1-1.1h-4.1v33.4
		h4.1L458.3,86.5z"/>
	<path class="st1" d="M478.8,49.7c0.7,0,1.2,0.2,1.7,0.7l1.9,1.9c0.5,0.5,0.7,1,0.7,1.7v33.8c0,0.7-0.2,1.2-0.7,1.7l-1.9,1.9
		c-0.5,0.5-1,0.7-1.7,0.7h-7.3c-0.7,0-1.2-0.2-1.7-0.7l-1.9-1.9c-0.5-0.5-0.7-1-0.7-1.7V54c0-0.7,0.2-1.2,0.7-1.7l1.9-1.9
		c0.5-0.5,1-0.7,1.7-0.7H478.8z M473.5,54.3l-1.1,1.1v31.1l1.1,1.1h3.1l1.1-1.1V55.4l-1.1-1.1H473.5z"/>
</g>
</svg>
